<svg width="484" height="76" viewBox="0 0 484 76" fill="none" xmlns="http://www.w3.org/2000/svg">
  <path d="M79.9843 71.5942L60.4699 37.7961L79.0574 4.04579C79.2512 3.65952 79.3519 3.23493 79.3519 2.80462C79.3519 2.37431 79.2512 1.94972 79.0574 1.56345C78.8908 1.18946 78.6187 0.869625 78.2732 0.64137C77.9276 0.413116 77.5227 0.285876 77.1059 0.274536H52.713C52.3091 0.287548 51.9159 0.404782 51.5732 0.614361C51.2305 0.82394 50.9505 1.11842 50.7615 1.46797L43.7852 14.4048L55.6889 35.1228C56.2059 36.0272 56.4774 37.0462 56.4774 38.0825C56.4774 39.1188 56.2059 40.1378 55.6889 41.0423L44.5657 61.3306L52.0788 74.2675C52.266 74.6044 52.5402 74.8875 52.874 75.0885C53.2078 75.2895 53.5896 75.4014 53.9814 75.4132H78.3256C78.7454 75.3895 79.1514 75.2578 79.5025 75.0315C79.8537 74.8052 80.1377 74.4923 80.3258 74.1243C80.5312 73.7329 80.6384 73.2992 80.6384 72.8592C80.6384 72.4192 80.5312 71.9856 80.3258 71.5942" fill="#FFE600"/>
  <path d="M49.5423 36.8413L38.6631 17.985L29.2474 1.37238C29.0522 1.03174 28.7694 0.746859 28.4272 0.54592C28.0849 0.344981 27.695 0.234942 27.2959 0.226685H3.24452C2.82916 0.243581 2.42676 0.37304 2.08219 0.600624C1.73762 0.828209 1.46443 1.14497 1.29308 1.5156C1.08763 1.90698 0.980469 2.34064 0.980469 2.78064C0.980469 3.22063 1.08763 3.65429 1.29308 4.04568L20.8074 38.1302L2.17123 71.5464C1.96608 71.9293 1.85892 72.3552 1.85892 72.7875C1.85892 73.2199 1.96608 73.6458 2.17123 74.0287C2.3494 74.4036 2.61713 74.7311 2.9518 74.9835C3.11371 74.9624 3.27775 74.9624 3.43966 74.9835C3.66682 75.0046 3.8955 75.0046 4.12266 74.9835H28.5156C28.9271 74.9763 29.3282 74.8562 29.6732 74.6367C30.0183 74.4173 30.2933 74.1073 30.467 73.7423L39.2973 57.8457L49.5423 39.5623C49.7687 39.1602 49.8874 38.7086 49.8874 38.2495C49.8874 37.7905 49.7687 37.3389 49.5423 36.9367" fill="#FFE600"/>
  <path d="M114.18 36.812L103.901 20.1204C103.803 19.9688 103.749 19.7906 103.745 19.6074C103.742 19.4242 103.789 19.2439 103.882 19.0883C103.974 18.9327 104.108 18.8086 104.267 18.7309C104.426 18.6532 104.603 18.6253 104.776 18.6505H112.212C112.374 18.6641 112.531 18.7151 112.671 18.7999C112.812 18.8846 112.932 19.001 113.024 19.1405L118.867 28.9399L124.803 19.1405C124.892 18.9975 125.012 18.8785 125.153 18.7934C125.294 18.7082 125.453 18.6592 125.615 18.6505H133.051C133.926 18.6505 134.395 19.4345 133.926 20.1204L123.585 36.812L134.27 54.4182C134.373 54.5652 134.433 54.7401 134.443 54.9219C134.453 55.1038 134.413 55.2848 134.327 55.4434C134.242 55.6019 134.114 55.7313 133.96 55.8159C133.805 55.9006 133.631 55.937 133.458 55.9207H126.459C126.288 55.9121 126.12 55.8636 125.969 55.7789C125.817 55.6941 125.686 55.5752 125.584 55.4308L118.929 44.6841L112.306 55.4308C112.202 55.5736 112.071 55.6913 111.92 55.7759C111.769 55.8605 111.602 55.9099 111.431 55.9207H104.37C103.495 55.9207 103.026 55.1041 103.495 54.4182L114.18 36.812Z" fill="black"/>
  <path d="M158.919 18.7209C161.126 18.6484 163.325 19.0352 165.387 19.8585C167.449 20.6819 169.333 21.9254 170.929 23.5162C171.027 23.6085 171.105 23.7212 171.159 23.847C171.212 23.9728 171.24 24.109 171.24 24.2466C171.24 24.3843 171.212 24.5204 171.159 24.6462C171.105 24.7721 171.027 24.8847 170.929 24.977L167.057 29.169C166.888 29.3342 166.665 29.4261 166.433 29.4261C166.201 29.4261 165.977 29.3342 165.808 29.169C163.957 27.4649 161.572 26.5271 159.102 26.5332C156.41 26.5332 153.828 27.6473 151.925 29.6306C150.021 31.6138 148.952 34.3036 148.952 37.1083C148.952 39.913 150.021 42.6029 151.925 44.5861C153.828 46.5693 156.41 47.6835 159.102 47.6835C161.523 47.6722 163.868 46.7981 165.747 45.2064C165.921 45.039 166.15 44.9461 166.387 44.9461C166.624 44.9461 166.853 45.039 167.027 45.2064L170.929 49.4936C171.088 49.6888 171.175 49.9364 171.175 50.1923C171.175 50.4482 171.088 50.6958 170.929 50.891C167.664 54.1816 163.278 55.9865 158.736 55.9086C156.326 56.0123 153.921 55.6073 151.666 54.718C149.41 53.8288 147.35 52.4735 145.61 50.7337C143.87 48.994 142.485 46.9056 141.539 44.5941C140.593 42.2827 140.105 39.7958 140.105 37.283C140.105 34.7702 140.593 32.2833 141.539 29.9718C142.485 27.6604 143.87 25.572 145.61 23.8322C147.35 22.0925 149.41 20.7372 151.666 19.8479C153.921 18.9586 156.326 18.5537 158.736 18.6574L158.919 18.7209Z" fill="black"/>
  <path d="M196.651 18.6416C200.291 18.629 203.853 19.7109 206.886 21.7502C209.919 23.7894 212.287 26.6946 213.69 30.0979C215.093 33.5012 215.468 37.2497 214.768 40.8691C214.067 44.4885 212.323 47.8161 209.756 50.4308C207.189 53.0454 203.914 54.8297 200.345 55.5577C196.777 56.2858 193.075 55.9249 189.709 54.5207C186.344 53.1165 183.464 50.7322 181.436 47.6694C179.408 44.6067 178.322 41.0031 178.316 37.3149C178.308 34.8683 178.776 32.4441 179.693 30.181C180.61 27.9179 181.959 25.8603 183.662 24.1259C185.365 22.3915 187.389 21.0144 189.618 20.0734C191.846 19.1323 194.236 18.6457 196.651 18.6416ZM196.651 47.6042C198.677 47.6168 200.661 47.0187 202.351 45.8859C204.041 44.7532 205.36 43.1369 206.141 41.2426C206.922 39.3483 207.13 37.2615 206.738 35.2473C206.345 33.2332 205.371 31.3826 203.938 29.931C202.506 28.4793 200.679 27.492 198.691 27.0945C196.704 26.6971 194.644 26.9074 192.775 27.6989C190.905 28.4903 189.31 29.8271 188.192 31.5393C187.074 33.2516 186.484 35.2619 186.496 37.3149C186.513 40.0386 187.588 42.6461 189.489 44.5721C191.389 46.4981 193.963 47.5876 196.651 47.6042Z" fill="black"/>
  <path d="M220.872 19.9999C220.798 19.8527 220.764 19.6884 220.774 19.5237C220.784 19.3591 220.837 19.2 220.929 19.0628C221.02 18.9255 221.147 18.815 221.295 18.7426C221.444 18.6701 221.609 18.6383 221.774 18.6503H228.759C228.944 18.6571 229.122 18.7148 229.276 18.8169C229.429 18.919 229.551 19.0615 229.629 19.2287L238.288 38.5084H238.61L247.27 19.2287C247.353 19.059 247.48 18.9153 247.639 18.8133C247.798 18.7113 247.982 18.6549 248.171 18.6503H255.125C255.293 18.6266 255.464 18.6508 255.619 18.7201C255.774 18.7895 255.906 18.9011 256.001 19.0421C256.095 19.1832 256.147 19.3479 256.152 19.5173C256.156 19.6868 256.113 19.8541 256.026 19.9999L239.544 55.346C239.473 55.5179 239.353 55.6648 239.198 55.7679C239.043 55.871 238.861 55.9254 238.675 55.9244H238.159C237.969 55.9276 237.781 55.8743 237.621 55.7714C237.461 55.6685 237.334 55.5204 237.258 55.346L220.872 19.9999Z" fill="black"/>
  <path d="M261.813 19.6571C261.821 19.3903 261.93 19.1368 262.118 18.948C262.306 18.7593 262.559 18.6497 262.825 18.6415H284.86C285.128 18.6415 285.385 18.7485 285.575 18.9389C285.765 19.1294 285.871 19.3877 285.871 19.6571V25.4232C285.871 25.6925 285.765 25.9509 285.575 26.1413C285.385 26.3318 285.128 26.4388 284.86 26.4388H270.137V32.9912H282.248C282.514 32.9994 282.766 33.109 282.954 33.2977C283.143 33.4865 283.252 33.7401 283.26 34.0068V39.8384C283.26 40.1078 283.153 40.3661 282.964 40.5566C282.774 40.747 282.516 40.854 282.248 40.854H270.137V48.0617H284.86C285.128 48.0617 285.385 48.1686 285.575 48.3591C285.765 48.5496 285.871 48.8079 285.871 49.0773V54.9089C285.871 55.1782 285.765 55.4366 285.575 55.627C285.385 55.8175 285.128 55.9245 284.86 55.9245H262.825C262.559 55.9163 262.306 55.8066 262.118 55.6179C261.93 55.4292 261.821 55.1756 261.813 54.9089V19.6571Z" fill="black"/>
  <path d="M295.778 19.6572C295.778 19.3885 295.884 19.1309 296.072 18.941C296.26 18.7511 296.516 18.6444 296.782 18.6444H312.556C315.262 18.5829 317.9 19.5057 319.987 21.2442C322.074 22.9826 323.472 25.4205 323.924 28.1124C324.376 30.8043 323.852 33.5704 322.449 35.9051C321.046 38.2399 318.856 39.9873 316.281 40.8281L323.504 54.3539C323.607 54.5115 323.665 54.695 323.67 54.8838C323.675 55.0725 323.628 55.2589 323.533 55.422C323.439 55.5851 323.302 55.7184 323.136 55.8067C322.971 55.8951 322.784 55.9351 322.597 55.9221H315.569C315.399 55.9161 315.234 55.8683 315.087 55.7829C314.94 55.6974 314.816 55.577 314.726 55.4321L307.73 41.3181H304.07V54.8113C304.054 55.0749 303.944 55.3235 303.759 55.5102C303.574 55.6969 303.327 55.8086 303.066 55.8241H296.782C296.516 55.8241 296.26 55.7174 296.072 55.5275C295.884 55.3375 295.778 55.0799 295.778 54.8113V19.6572ZM311.973 34.5552C313.053 34.4969 314.07 34.0249 314.817 33.2355C315.563 32.446 315.983 31.3989 315.99 30.308C315.981 29.2361 315.555 28.2107 314.804 27.4527C314.052 26.6948 313.036 26.2653 311.973 26.2567H304.07V34.5552H311.973Z" fill="black"/>
  <path d="M336.127 47.3208C337.46 47.3636 338.72 47.8467 339.642 48.6677C340.563 49.4887 341.073 50.583 341.064 51.7189C341.03 52.8396 340.486 53.9052 339.547 54.6901C338.608 55.4751 337.346 55.9178 336.031 55.9246C334.738 55.8962 333.508 55.4424 332.6 54.6582C331.691 53.874 331.175 52.8206 331.159 51.7189C331.146 51.1521 331.264 50.5888 331.507 50.061C331.75 49.5332 332.112 49.0513 332.574 48.6429C333.035 48.2345 333.586 47.9075 334.196 47.6807C334.806 47.4538 335.462 47.3315 336.127 47.3208Z" fill="black"/>
  <path d="M364.947 18.7209C367.259 18.6477 369.563 19.034 371.724 19.8573C373.885 20.6806 375.86 21.9244 377.534 23.5162C377.637 23.6085 377.719 23.7212 377.775 23.847C377.831 23.9728 377.86 24.109 377.86 24.2466C377.86 24.3843 377.831 24.5204 377.775 24.6462C377.719 24.7721 377.637 24.8847 377.534 24.977L373.455 29.169C373.372 29.2535 373.273 29.3206 373.164 29.3665C373.054 29.4123 372.937 29.4359 372.818 29.4359C372.699 29.4359 372.582 29.4123 372.472 29.3665C372.363 29.3206 372.264 29.2535 372.181 29.169C370.243 27.47 367.751 26.533 365.17 26.5332C362.356 26.5332 359.657 27.6473 357.667 29.6306C355.676 31.6138 354.558 34.3036 354.558 37.1083C354.558 39.913 355.676 42.6029 357.667 44.5861C359.657 46.5693 362.356 47.6835 365.17 47.6835C367.712 47.6769 370.175 46.8027 372.149 45.2064C372.331 45.039 372.57 44.9461 372.818 44.9461C373.066 44.9461 373.305 45.039 373.487 45.2064L377.534 49.4936C377.714 49.6824 377.813 49.9324 377.813 50.1923C377.813 50.4522 377.714 50.7022 377.534 50.891C374.119 54.1786 369.535 55.983 364.788 55.9086C362.268 56.0123 359.754 55.6073 357.396 54.718C355.037 53.8288 352.884 52.4735 351.065 50.7337C349.245 48.994 347.798 46.9056 346.809 44.5941C345.82 42.2827 345.31 39.7958 345.31 37.283C345.31 34.7702 345.82 32.2833 346.809 29.9718C347.798 27.6604 349.245 25.572 351.065 23.8322C352.884 22.0925 355.037 20.7372 357.396 19.8479C359.754 18.9586 362.268 18.5537 364.788 18.6574L364.947 18.7209Z" fill="black"/>
  <path d="M403.271 18.6416C406.911 18.629 410.473 19.7109 413.506 21.7502C416.539 23.7894 418.907 26.6946 420.31 30.0979C421.713 33.5012 422.088 37.2497 421.388 40.8691C420.687 44.4885 418.943 47.8161 416.376 50.4308C413.809 53.0454 410.534 54.8297 406.965 55.5577C403.397 56.2858 399.695 55.9249 396.33 54.5207C392.964 53.1165 390.084 50.7322 388.056 47.6694C386.028 44.6067 384.942 41.0031 384.936 37.3149C384.928 34.8683 385.396 32.4441 386.313 30.181C387.231 27.9179 388.579 25.8603 390.282 24.1259C391.985 22.3915 394.009 21.0144 396.238 20.0734C398.467 19.1323 400.857 18.6457 403.271 18.6416ZM403.271 47.6042C405.296 47.6105 407.277 47.007 408.963 45.8704C410.648 44.7338 411.963 43.1154 412.739 41.2205C413.515 39.3256 413.718 37.2397 413.323 35.2276C412.927 33.2156 411.95 31.368 410.516 29.9195C409.082 28.471 407.256 27.4869 405.269 27.0921C403.282 26.6972 401.224 26.9095 399.356 27.7019C397.488 28.4943 395.895 29.8311 394.779 31.5426C393.662 33.2542 393.073 35.2633 393.085 37.3149C393.11 40.0415 394.192 42.649 396.098 44.5741C398.003 46.4993 400.58 47.5876 403.271 47.6042Z" fill="black"/>
  <path d="M434.589 19.4616C434.619 19.2384 434.728 19.0332 434.898 18.8829C435.067 18.7326 435.285 18.647 435.512 18.6415H436.339C436.517 18.6511 436.691 18.7018 436.845 18.7894C437 18.877 437.132 18.9992 437.231 19.1462L449.264 41.2258L461.297 19.1462C461.396 18.9992 461.528 18.877 461.683 18.7894C461.837 18.7018 462.01 18.6511 462.188 18.6415H463.016C463.243 18.647 463.461 18.7326 463.63 18.8829C463.799 19.0332 463.909 19.2384 463.939 19.4616L469.829 54.1581C469.858 54.2999 469.854 54.4465 469.817 54.5866C469.781 54.7267 469.712 54.8566 469.617 54.9662C469.521 55.0759 469.402 55.1625 469.268 55.2192C469.133 55.276 468.988 55.3015 468.842 55.2937H462.698C462.466 55.2797 462.245 55.1925 462.068 55.0449C461.89 54.8972 461.765 54.697 461.711 54.4736L459.387 38.7024L450.665 55.3567C450.568 55.5107 450.437 55.6414 450.283 55.7396C450.129 55.8377 449.955 55.9009 449.773 55.9245H448.85C448.666 55.9106 448.488 55.8515 448.332 55.7523C448.176 55.6532 448.048 55.5173 447.959 55.3567L439.205 38.387L436.912 54.1581C436.868 54.3866 436.746 54.5929 436.566 54.7423C436.387 54.8918 436.16 54.9751 435.926 54.9782H429.814C429.668 54.986 429.522 54.9606 429.388 54.9038C429.253 54.847 429.134 54.7605 429.038 54.6508C428.943 54.5411 428.874 54.4112 428.838 54.2711C428.801 54.1311 428.797 53.9845 428.827 53.8427L434.589 19.4616Z" fill="black"/>
</svg>
